<?xml version="1.0" encoding="utf-8"?>
<!-- Generator: Adobe Illustrator 19.2.0, SVG Export Plug-In . SVG Version: 6.00 Build 0)  -->
<svg version="1.1" id="Layer_1" xmlns="http://www.w3.org/2000/svg" xmlns:xlink="http://www.w3.org/1999/xlink" x="0px" y="0px"
	 viewBox="0 0 1920 1081" style="enable-background:new 0 0 1920 1081;" xml:space="preserve">
<style type="text/css">
	.st0{fill:#F8C09D;}
	.st1{fill:#1A1A1A;}
	.st2{fill:#443833;}
	.st3{fill:#F2F2F2;}
	.st4{fill:#44A0C1;}
	.st5{fill:#FFFFFF;}
	.st6{fill:#738891;}
	.st7{fill:#703B21;}
	.st8{fill:#F6AE8D;}
	.st9{fill:#EF937E;}
	.st10{fill:none;stroke:#91A89D;stroke-width:2.9104;stroke-miterlimit:10;}
	.st11{fill:none;stroke:#91A89D;stroke-width:2.9104;stroke-linecap:round;stroke-miterlimit:10;}
	.st12{fill:#E26C60;}
	.st13{fill:#333333;}
	.st14{fill:none;stroke:#FFFFFF;stroke-width:2.4831;stroke-miterlimit:10;}
	.st15{fill:none;stroke:#1A1A1A;stroke-width:4.9663;stroke-miterlimit:10;}
	.st16{fill:none;stroke:#1A1A1A;stroke-width:5.6022;stroke-miterlimit:10;}
	.st17{fill:#CCCCCC;}
</style>
<polygon class="st0" points="984.9,869.3 964,869.3 917.9,527.3 984.9,527.3 "/>
<polygon class="st0" points="1005.1,869.3 1026,869.3 1065.1,527.3 998.9,527.3 "/>
<path class="st0" d="M1005.1,869.3l-10,44.8c0,0,1,14.9,12.6,14.9c11.7,0,13.9-11.3,15.9-21.4c1.9-10,2.5-38.3,2.5-38.3H1005.1z"/>
<path class="st1" d="M1030.6,879.8c-0.1,1.2,3.2,35.3,1.3,35.3c-2.9,0-5.9,0-5.9,0s3.5-31.4,2.3-35.3S1030.6,879.8,1030.6,879.8z"/>
<path class="st2" d="M997.2,904.7c3.9-2.7,5.7-2.5,11.5-1.4c5.8,1.1,10.3,4.3,13.4,6.3c3.1,1.9,1.5-11.3,1.8-22.3
	c0.3-11,2.1-17.9,2.1-17.9l0.4-3.8c0,0,5.5,2.7,4.5,10.8c-1,8.1-3.2,30.5-2.9,40.2c0.3,9.7-13.9,14.5-26.2,14.8
	c-12.3,0.3-11.7-3.2-11.1-9.5C991.5,915.7,993.3,907.4,997.2,904.7z"/>
<path class="st0" d="M964,869.3l-10,44.8c0,0,1,14.9,12.6,14.9c11.7,0,13.9-11.3,15.9-21.4c1.9-10,2.5-38.3,2.5-38.3H964z"/>
<path class="st1" d="M989.5,879.8c-0.1,1.2,3.2,35.3,1.3,35.3c-2.9,0-5.9,0-5.9,0s3.5-31.4,2.3-35.3
	C986,875.9,989.5,879.8,989.5,879.8z"/>
<path class="st2" d="M956.1,904.7c3.9-2.7,5.7-2.5,11.5-1.4c5.8,1.1,10.3,4.3,13.4,6.3c3.1,1.9,1.5-11.3,1.8-22.3s2.1-17.9,2.1-17.9
	l0.4-3.8c0,0,5.5,2.7,4.5,10.8c-1,8.1-3.2,30.5-2.9,40.2c0.3,9.7-13.9,14.5-26.2,14.8s-11.7-3.2-11.1-9.5
	C950.4,915.7,952.2,907.4,956.1,904.7z"/>
<path class="st3" d="M1053.5,442.9l15.9-110.2c0-17.5-10.8-32.3-24.2-32.3H941.7c-13.4,0-24.2,14.8-24.2,32.2l14.2,106.4
	c0,0-25.6,81.8-25.6,115.1s0,145,0,145h172c0,0,0-114.5,0-145S1053.5,442.9,1053.5,442.9z"/>
<polygon class="st4" points="973.7,700 990.9,626.6 1007.5,700 "/>
<rect x="905.8" y="699.3" class="st4" width="171.5" height="25.6"/>
<path class="st3" d="M1085.6,310.2c0,0-7.6-9.9-39.1-9.9c-18.1,0,20.5,27.7,20.5,27.7L1085.6,310.2z"/>
<path class="st3" d="M955.3,300.3c0,0-45.8-2.9-53.3,13c-7.1,15.1,16.6,23.1,16.6,23.1L955.3,300.3z"/>
<polygon class="st0" points="1012.7,300.3 1008,343.8 964.8,343.8 961.5,300.3 "/>
<path class="st4" d="M1008,334.3c0,0-6,9.5-21,9.5s-24.5-9.5-24.5-9.5l22.3,63.8L1008,334.3z"/>
<polygon class="st5" points="961.5,300.3 984.8,398 942.6,334.8 950.6,327 940.4,316.4 "/>
<polygon class="st5" points="1012.7,300.3 984.8,398 1031.6,334.8 1023.6,327 1033.8,316.4 "/>
<path class="st3" d="M1011.2,391.5h19.8c3.7,0,6.7-3,6.7-6.7v-4.3h-33.3v4.3C1004.5,388.5,1007.5,391.5,1011.2,391.5z"/>
<path class="st3" d="M894.1,460.2L894.1,460.2c10.1,1.5,19.5-5.4,21-15.4L933.6,324c1.5-10.1,2.4-23.6-8.1-22.4
	c-22.6,2.5-26.3,12.4-29.5,27.1l-17.4,110.4C877.1,449.2,884,458.6,894.1,460.2z"/>
<path class="st3" d="M1105.7,459.3L1105.7,459.3c9.9-2.5,15.9-12.5,13.5-22.4l-29.4-118.5c-2.5-9.9-12.5-15.9-22.4-13.5l0,0
	c-9.9,2.5-15.9,12.5-13.5,22.4l29.4,118.5C1085.8,455.7,1095.8,461.7,1105.7,459.3z"/>
<path class="st6" d="M1107.4,586L986,545c-4.8-1.6-7.3-6.8-5.7-11.6l25.2-74.8c1.6-4.8,6.8-7.3,11.6-5.7l121.4,40.9
	c4.8,1.6,7.3,6.8,5.7,11.6l-25.2,74.8C1117.4,585,1112.2,587.6,1107.4,586z"/>
<path class="st3" d="M1108.8,428.5L1108.8,428.5c-9.6-3.4-20.2,1.6-23.6,11.2l-34.8,97.8l34.8,12.4l34.8-97.8
	C1123.4,442.5,1118.4,431.9,1108.8,428.5z"/>
<circle class="st7" cx="1034.3" cy="246.8" r="32.3"/>
<path class="st7" d="M1067.1,169.3c-0.3,27.9-3.1,46.4-29.3,81.7c-27.4,36.8-97,20.1-118.5-0.8s-37.1-98.2-9.4-140.1l136.7-4.6
	C1046.6,105.6,1067.5,129.9,1067.1,169.3z"/>
<path class="st0" d="M962.5,294.9c0,13.4,10.9,24.5,24.3,24.5h0h0.2c13.4,0,24.5-11.1,24.5-24.5v-24.6h-49V294.9z"/>
<path class="st8" d="M1011.5,289.6c-8.4,4.3-16.6,8.2-23.9,8.2c-7.6,0-16.4-1.4-25.1-5.8v-16h49V289.6z"/>
<path class="st0" d="M985.2,288.2c28,0,64-40,64-67v-91.8H914v91.8C914,249.6,938.4,288.2,985.2,288.2z"/>
<circle class="st0" cx="1051.9" cy="208.8" r="17.7"/>
<path class="st9" d="M1055.4,211.3c0-3.5-2.8-6.3-6.3-6.3c-1,0-1.9,0.2-2.7,0.6c1.1-1.8,3.1-3.1,5.4-3.1c3.5,0,6.3,2.8,6.3,6.3
	c0,2.5-1.5,4.7-3.6,5.7C1055.1,213.6,1055.4,212.5,1055.4,211.3z"/>
<path class="st7" d="M941.5,145.7c0,0,30.3,17.7,55.3,22.9c26.7,5.6,50.8,1.2,50.8,1.2s27.2-24,4.8-57.4C1018,61.2,942,74,915,103.4
	c-23.7,25.8-3.7,71.3-3.7,71.3s5.4-0.5,13.9-10.1C935.6,152.9,941.5,145.7,941.5,145.7z"/>
<circle class="st0" cx="906" cy="208.8" r="17.7"/>
<path class="st9" d="M902.4,211.3c0-3.5,2.8-6.3,6.3-6.3c1,0,1.9,0.2,2.7,0.6c-1.1-1.8-3.1-3.1-5.4-3.1c-3.5,0-6.3,2.8-6.3,6.3
	c0,2.5,1.5,4.7,3.6,5.7C902.8,213.6,902.4,212.5,902.4,211.3z"/>
<path class="st10" d="M997.1,214.5h30.5c4.6,0,8.3-3.7,8.3-8.3v-13.5c0-4.6-3.7-8.3-8.3-8.3h-30.5c-4.6,0-8.3,3.7-8.3,8.3v13.5
	C988.8,210.8,992.5,214.5,997.1,214.5z"/>
<path class="st10" d="M935.5,214.5H966c4.6,0,8.3-3.7,8.3-8.3v-13.5c0-4.6-3.7-8.3-8.3-8.3h-30.5c-4.6,0-8.3,3.7-8.3,8.3v13.5
	C927.1,210.8,930.9,214.5,935.5,214.5z"/>
<path class="st10" d="M988.8,199.4c0,0.4-3-3.2-7.5-3.2c-4.5,0-7,3.4-7,3.4"/>
<line class="st11" x1="1051.9" y1="191.1" x2="1036" y2="195.9"/>
<line class="st11" x1="926.9" y1="195.9" x2="911" y2="191.1"/>
<path class="st12" d="M998.9,243.9c0,9-7.3,15.3-16.3,15.3l0,0c-9,0-16.3-6.3-16.3-15.3"/>
<path class="st9" d="M976.6,230.7c0,0.6,0.7,1.1,1.4,1.1h7.9c2.2,0,3.3-2.5,2-4.2l-9.2-11c-0.7-0.8-2.1-0.3-2.1,0.7"/>
<ellipse class="st13" cx="1011.7" cy="199.6" rx="4.7" ry="8.3"/>
<ellipse class="st13" cx="952.4" cy="199.6" rx="4.7" ry="8.3"/>
<g>
	<path class="st0" d="M1085.7,555.3l-2.9,7.9c-1.2,3.4-5,5.2-8.4,4l-26.9-9.8c-3.4-1.2-5.2-5-4-8.4l2.9-7.9c1.3-3.6,5.3-5.5,9-4.2
		l26.1,9.5C1085.1,547.6,1087,551.7,1085.7,555.3z"/>
	<path class="st0" d="M1052.6,538.2L1052.6,538.2c2.7,1,4.1,4,3.1,6.7l-8.2,22.5c-1,2.7-4,4.1-6.7,3.1l0,0c-2.7-1-4.1-4-3.1-6.7
		l8.2-22.5C1046.9,538.7,1049.9,537.3,1052.6,538.2z"/>
	<path class="st0" d="M1060.8,546.2L1060.8,546.2c2.7,1,4.1,4,3.1,6.7l-8.2,22.5c-1,2.7-4,4.1-6.7,3.1l0,0c-2.7-1-4.1-4-3.1-6.7
		l8.2-22.5C1055.1,546.6,1058.1,545.2,1060.8,546.2z"/>
	<path class="st0" d="M1071.5,547.3L1071.5,547.3c2.7,1,4.1,4,3.1,6.7l-8.2,22.5c-1,2.7-4,4.1-6.7,3.1l0,0c-2.7-1-4.1-4-3.1-6.7
		l8.2-22.5C1065.8,547.7,1068.8,546.3,1071.5,547.3z"/>
	<path class="st0" d="M1082.6,547.3L1082.6,547.3c2.7,1,4.1,4,3.1,6.7l-8.2,22.5c-1,2.7-4,4.1-6.7,3.1l0,0c-2.7-1-4.1-4-3.1-6.7
		l8.2-22.5C1076.9,547.7,1079.9,546.3,1082.6,547.3z"/>
</g>
<g>
	<path class="st14" d="M948.8,401l-10.5,1.2c-6.8-0.4-11-11.4-10.3-26.7l2-30.8c0.1-10.9,6.5-19.8,15.1-20.8l0.5-0.1
		c8.6-1,16.8,6.2,19.4,16.9l9.4,31.2c5.7,15.8-0.6,26.2-5.6,26.7l-8.8,1"/>
	<path class="st15" d="M928.8,363.6L930,345c1.1-11.7,6.5-19.6,15.1-20.6l0.5-0.1c8.6-1,15.5,6.4,19.3,16.7l5.4,17.9"/>
	<path d="M962.2,396l2.8-0.3c2-0.2,3.8,1.2,4,3.2l0.1,0.5c0.2,2-1.2,3.8-3.2,4l-2.8,0.3c-2,0.2-3.8-1.2-4-3.2L959,400
		C958.8,398,960.2,396.2,962.2,396z"/>
	<path d="M943.6,398.1l2.8-0.3c2-0.2,3.8,1.2,4,3.2l0.1,0.5c0.2,2-1.2,3.8-3.2,4l-2.8,0.3c-2,0.2-3.8-1.2-4-3.2l-0.1-0.5
		C940.2,400.1,941.6,398.3,943.6,398.1z"/>
	<path class="st16" d="M963.5,294.6L963.5,294.6c-7.6-1.2-15.5,10.5-17.4,21.4l-0.4,2.9l-0.8,5.5"/>
	<path class="st16" d="M1012,296.8L1012,296.8c7.7-2,24.3,12.7,22.6,41.2c-1.3,22.2-6.3,36.3-6.3,36.3"/>
	
		<ellipse transform="matrix(0.9683 -0.2499 0.2499 0.9683 -62.0959 268.2745)" class="st5" cx="1025.7" cy="378.7" rx="12.9" ry="12.9"/>
	<ellipse transform="matrix(0.9683 -0.2499 0.2499 0.9683 -62.0959 268.2745)" cx="1025.7" cy="378.7" rx="8.1" ry="8.1"/>
	
		<ellipse transform="matrix(0.9683 -0.2499 0.2499 0.9683 -62.0959 268.2745)" class="st17" cx="1025.7" cy="378.7" rx="5.1" ry="5.1"/>
</g>
<path class="st3" d="M910.1,454.3L910.1,454.3c-7,7.4-18.7,7.7-26.1,0.7l-80.3-75l25.4-26.8l80.3,75
	C916.8,435.3,917.1,446.9,910.1,454.3z"/>
<path class="st0" d="M808.4,375.2l-16.8-15.9c0,0-3.8-3.8-3.4-7.4s4.3-3.6,4.3-3.6s-4.4-0.8-4.4-5.6c0-4.8,5.3-3.8,5.3-3.8
	s-4.4-1.5-4.3-5.4c0.1-5.6,5.5-4.4,5.5-4.4s-5.1-1.5-5.1-6c0-4.5,6.9-8.7,10.3-10.6s8.5,5.8,8.5,5.8s1.8-9,3.8-16.7
	c1.9-7.7,10.5-3,9.1,6.1s0,11.8,2.4,18.5s-3.4,18.7-3.4,22.5s6.2,7.2,6.2,7.2L808.4,375.2z"/>
<path class="st8" d="M808.4,318.3c0,0,2.1,4.6,1.1,7c-1.1,2.4-2.1,2.6-2.1,2.6s2.3,3.4,1.8,5.6c-0.5,2.2-1.8,3.9-1.8,3.9
	s1.5,2.1,1.2,4.9s-2.9,4.3-2.9,4.3s2.3,1.7,1.7,4.6c-0.6,2.9-8.8,6.4-12.8,6.7s-4,0.4-4,0.4l17.9,17.1l3.5-3.7L800,360.4
	c0,0,9.5-2.3,11-5.8c1.5-3.5,0.9-7,0.9-7s2.3-3.8,1.7-7.2c-0.6-3.4-0.6-3.4-0.6-3.4s2-2.9,1.8-5.5c-0.2-2.6-1.4-4.6-1.4-4.6
	s1.5-6.2-0.3-8.7S808.4,318.3,808.4,318.3z"/>
</svg>
